# xmcd
#
# Track frame offsets: 
#        150
#        39779
#        62209
#        77903
#        93388
#        143738
#        171657
#        190325
#        204438
#        246331
#        264916
#        296597
#
# Disc length: 4224 seconds
#
# Revision: 0
# Processed by: cddbd v1.5.2PL0 Copyright (c) Steve Scherf et al.
# Submitted via: ExactAudioCopy v1.0b3
#
DISCID=ae107e0c
DTITLE=Arion - Haydn - La Passione
DYEAR=2008
DGENRE=Classical
TTITLE0=Joseph Haydn (1732-1809) - Symphony No41 in C major Hob.I:41 -
TTITLE0=Allegro con spirito
TTITLE1=Joseph Haydn (1732-1809) - Symphony No41 in C major Hob.I:41 -
TTITLE1=Un poco andante
TTITLE2=Joseph Haydn (1732-1809) - Symphony No41 in C major Hob.I:41 -
TTITLE2=Menuet - Trio
TTITLE3=Joseph Haydn (1732-1809) - Symphony No41 in C major Hob.I:41 -
TTITLE3=Finale: Presto
TTITLE4=Joseph Haydn (1732-1809) - Symphony No49 in F minor Hob.I:49 '
TTITLE4=La Passione' - Adagio
TTITLE5=Joseph Haydn (1732-1809) - Symphony No49 in F minor Hob.I:49 '
TTITLE5=La Passione' - Allegro di molto
TTITLE6=Joseph Haydn (1732-1809) - Symphony No49 in F minor Hob.I:49 '
TTITLE6=La Passione' - Menuet - Trio
TTITLE7=Joseph Haydn (1732-1809) - Symphony No49 in F minor Hob.I:49 '
TTITLE7=La Passione' - Finale: Presto
TTITLE8=Joseph Haydn (1732-1809) - Symphony No44 in E minor Hob.I:44 '
TTITLE8=Trauer' - Allegro con brio
TTITLE9=Joseph Haydn (1732-1809) - Symphony No44 in E minor Hob.I:44 '
TTITLE9=Trauer' - Menuetto - Trio
TTITLE10=Joseph Haydn (1732-1809) - Symphony No44 in E minor Hob.I:44 
TTITLE10='Trauer' - Adagio
TTITLE11=Joseph Haydn (1732-1809) - Symphony No44 in E minor Hob.I:44 
TTITLE11='Trauer' - Finale: Presto
EXTD=
EXTT0=
EXTT1=
EXTT2=
EXTT3=
EXTT4=
EXTT5=
EXTT6=
EXTT7=
EXTT8=
EXTT9=
EXTT10=
EXTT11=
PLAYORDER=
